<?xml version="1.0" encoding="UTF-8"?>
<svg xmlns="http://www.w3.org/2000/svg" viewBox="0 0 1024 1024" width="1024" height="1024">
<path d="M476.08 269.5C468.03 276.86 458.43 282.64 449.64 289.05C433.04 301.16 416.42 313.26 399.57 325.01C392.45 329.98 376.79 343.73 368.5 343.78C364.85 343.8 361.52 341.65 358.25 340.26C349.47 336.55 340.96 332.2 332.33 328.16C317.6 321.28 302.98 314.13 288.2 307.35C277.43 302.41 266.17 297.61 256.01 291.5C256.44 285.59 263.29 281.65 267.78 278.32C278.11 270.64 288.46 262.97 298.91 255.44C311.11 246.64 323.17 237.67 335.42 228.97C342.23 224.13 350.03 217.52 358.55 216.21C367.26 214.88 375.08 219.36 382.8 222.67C399.91 230 416.85 237.87 433.7 245.8C443.68 250.49 453.94 254.64 463.7 259.8C468.48 262.34 473.89 264.27 476.08 269.5ZM359.54 269.17C353.07 270.24 341.97 276.98 346.56 284.92C351.73 293.89 373.46 292.14 379.42 284.91C381.26 282.68 382.17 279.99 381.26 277.27C378.53 269.11 366.73 267.98 359.54 269.17ZM481.84 279.88C487.54 310.83 490.55 342.23 494.12 373.5C495.36 384.37 499.72 400.93 494.71 410.89C494.33 410.85 493.69 411.62 493.51 410.78C493.27 409.7 494.58 408.33 494.84 407.32C495.57 404.49 495.86 400.67 495.61 397.75C494.65 386.37 493.6 374.82 491.98 363.51C489.01 342.88 486.77 322.16 484.01 301.5C483.35 296.53 482.74 291.49 481.91 286.54C481.61 284.71 480.36 282.5 480.98 280.62C481.09 280.26 481.65 280.21 481.84 279.88ZM380.5 489C369.08 484.65 358.26 478.67 347.32 473.18C332.01 465.49 316.69 457.81 301.38 450.12C293.65 446.23 285.86 442.43 278.3 438.22C274.74 436.23 270.17 434.13 267.59 430.88C264.64 427.15 264.46 423.04 263.78 418.59C262.34 409.3 261.87 399.86 260.95 390.5C258.92 369.84 256.69 349.22 254.94 328.5C254.17 319.43 251.61 309.76 252.5 300.67C256.83 300.06 262.54 304.12 266.54 305.94C277.67 311.03 288.62 316.55 299.65 321.85C314.29 328.9 329 335.91 343.77 342.72C349.59 345.41 361.62 349.19 365.51 354.01C367.43 356.4 366.88 359.37 367.38 362.24C368.85 370.59 369 379.09 370.11 387.48C372.97 409.06 374.9 430.83 377.08 452.52C377.96 461.19 379.26 469.81 380.02 478.5C380.34 482.22 381.23 485.27 380.5 489ZM466.16 309.02C464.43 309.03 462.69 309.04 460.95 309.06C461.14 308.72 461.32 308.38 461.5 308.05C462.83 308.04 464.17 308.04 465.5 308.03C465.72 308.36 465.94 308.69 466.16 309.02ZM468.01 337.2C471.17 328.25 476.23 317.46 467.06 309.82C467.87 309.92 468.69 310.02 469.5 310.12C474.63 316.48 475.67 332.78 468.01 337.2ZM450.03 320.86C449.41 325.2 448.79 329.54 448.16 333.89C447.94 334.67 447.72 335.45 447.5 336.23C446.98 331.4 445.97 323.94 450.03 320.86ZM272.7 323.3C267.31 324.13 265.96 330.15 266.43 334.69C267.32 343.31 275.06 358.37 286.13 354.59C290.67 353.03 291.24 347.54 291.01 343.5C290.57 335.71 281.86 321.89 272.7 323.3ZM411.09 326.96C411.43 327.14 411.77 327.32 412.11 327.5C410.91 328.36 409.7 329.23 408.5 330.09C408.36 329.76 408.22 329.44 408.08 329.11C409.08 328.39 410.08 327.67 411.09 326.96ZM466.75 338.9C466 340.01 465.25 341.13 464.5 342.25C464.37 341.93 464.24 341.61 464.11 341.28C464.99 340.49 465.87 339.69 466.75 338.9ZM451.01 340.87C453.7 343.31 455.49 343.98 459.16 343.95C459.74 344.13 460.32 344.32 460.9 344.5C456.03 345.15 453.52 345.07 450.06 341.5C450.38 341.29 450.69 341.08 451.01 340.87ZM386.28 345.01C385.36 346.03 384.43 347.04 383.5 348.05C383.35 347.73 383.21 347.41 383.06 347.09C384.13 346.4 385.21 345.71 386.28 345.01ZM376.12 352.93C378.26 356.3 377.92 363.22 378.07 367.5C378.33 374.76 379.23 382.28 380.16 389.47C383.04 411.79 385.01 434.22 387.84 456.51C389.12 466.62 389.34 476.9 391.5 486.86C394.48 486.26 397.45 485.67 400.43 485.08C397.45 486.37 394.48 487.66 391.5 488.95C389.08 485.89 389.34 482.26 388.88 478.52C387.83 469.84 386.94 461.18 385.9 452.51C383.35 431.16 381.39 409.75 378.79 388.42C377.94 381.46 377.65 374.47 376.83 367.52C376.27 362.79 374.97 357.62 376.12 352.93ZM442.9 362.16C442.3 362.16 441.7 362.16 441.1 362.16C440.41 361.94 439.72 361.72 439.03 361.5C441.11 361.5 443.19 361.5 445.27 361.5C444.48 361.72 443.69 361.94 442.9 362.16ZM450.01 365.82C454.89 368.38 454.94 379.71 450.98 383.13C451.79 376.79 452.61 371.94 450.01 365.82ZM308.14 375.88C294.56 385.03 310.24 414.02 324.42 407.92C328.97 405.96 330.24 399.69 329.29 395.33C327.38 386.56 321.71 378.8 313.08 375.8C312.89 375.48 312.69 375.17 312.5 374.85C311.05 375.19 309.59 375.54 308.14 375.88ZM427.02 375.79C426.72 379.56 426.41 383.33 426.11 387.1C425.75 386.9 425.39 386.7 425.03 386.5C424.56 382.72 424.46 378.35 427.02 375.79ZM449.11 386.02C449.4 386.18 449.7 386.34 450 386.5C449.16 387.65 448.33 388.8 447.5 389.95C447.3 389.64 447.09 389.33 446.89 389.01C447.63 388.01 448.37 387.01 449.11 386.02ZM444.02 391.89C444.33 392.09 444.65 392.3 444.96 392.5C443.14 393.35 441.32 394.2 439.5 395.06C439.31 394.76 439.12 394.46 438.93 394.16C440.63 393.4 442.32 392.65 444.02 391.89ZM708.99 459.5C703.63 465.53 689.39 472.84 682.1 477.57C662.49 490.29 642.77 502.86 623.19 515.62C617.1 519.58 610.77 523.23 604.73 527.27C603.06 528.39 601.19 530.08 599.23 530.67C597.24 531.27 594.55 531.19 592.5 530.98C585.17 530.21 567.52 518.35 560.21 514.33C542.36 504.53 524.42 494.85 506.81 484.63C496.26 478.51 485.26 473.12 475.02 466.5C477.69 460.38 484.48 457 489.89 453.42C500.55 446.39 511.25 439.43 521.93 432.45C535.46 423.6 549.31 415.22 562.89 406.42C570.78 401.3 580.03 394.54 589.54 393.15C600.19 391.6 611.66 399.05 620.64 403.89C641.85 415.32 662.66 427.65 683.06 440.44C690.83 445.31 704.61 451.49 708.99 459.5ZM588.71 411.27C586.43 411.69 584.05 412.46 581.96 413.47C575.78 416.45 572.42 423.68 579.04 428.47C585.93 433.46 605.05 433.73 609.39 424.85C614.48 414.41 595.38 410.05 588.71 411.27ZM489.09 416.19C488 417.13 486.91 418.06 485.81 418.99C486.65 417.02 486.91 416.71 489.09 416.19ZM425.01 419.12C424.04 418.67 423.06 418.23 422.09 417.78C422.23 417.43 422.36 417.09 422.5 416.74C423.67 417.32 424.85 417.91 426.02 418.5C425.68 418.71 425.35 418.91 425.01 419.12ZM414.11 418.92C412.12 420.63 410.14 422.35 408.16 424.07C408.8 421.19 410.87 419.5 413.5 417.96C413.7 418.28 413.9 418.6 414.11 418.92ZM429.92 426.83C430.26 427.05 430.59 427.28 430.93 427.5C430.79 431.14 430.64 434.78 430.5 438.42C430.27 437.9 430.05 437.39 429.82 436.87C429.85 433.52 429.89 430.18 429.92 426.83ZM345.68 429.27C340.37 429.9 338.99 434.93 338.98 439.5C338.98 447.92 347.71 464.05 358.31 458.84C370.43 452.9 357.02 427.91 345.68 429.27ZM405.03 429.81C404.64 431.58 404.24 433.36 403.84 435.14C403.46 434.93 403.08 434.71 402.69 434.5C403.47 432.94 404.25 431.37 405.03 429.81ZM403.13 438.93C403.13 439.64 403.13 440.35 403.13 441.06C402.92 442.17 402.71 443.27 402.5 444.38C402.5 441.18 402.5 437.98 402.5 434.78C402.71 436.16 402.92 437.54 403.13 438.93ZM429.13 438.76C429.41 439.01 429.7 439.25 429.98 439.5C429.15 441.56 428.33 443.62 427.5 445.68C427 445.85 426.51 446.02 426.01 446.19C427.05 443.71 428.09 441.24 429.13 438.76ZM459.1 440.25C457.99 441.16 456.88 442.07 455.77 442.98C456.61 440.95 456.83 440.66 459.1 440.25ZM403.86 444.72C404.25 445.86 404.65 447.01 405.05 448.15C404.86 448.59 404.68 449.03 404.5 449.47C404 448.15 403.5 446.82 403.01 445.5C403.29 445.24 403.57 444.98 403.86 444.72ZM652.54 447.22C646.12 448.21 634.46 453.54 639.53 461.97C645.01 471.08 666.29 471.19 672.49 462.98C680.94 451.76 660.01 446.07 652.54 447.22ZM424.85 447.92C424.07 449.21 423.28 450.5 422.5 451.79C422.2 451.51 421.91 451.24 421.61 450.96C422.69 449.95 423.77 448.93 424.85 447.92ZM526.86 449.81C520.3 450.43 508.58 455.19 512.53 463.98C516.66 473.2 535.02 472.84 542.35 468.85C555.94 461.46 542.14 450.56 531.95 449.83C530.47 449.55 528.98 449.27 527.5 448.98C527.29 449.26 527.07 449.53 526.86 449.81ZM406.04 449.62C406.83 450.4 407.61 451.18 408.4 451.96C408.1 452.26 407.8 452.56 407.5 452.85C406.72 452.07 405.94 451.28 405.16 450.5C405.45 450.21 405.74 449.91 406.04 449.62ZM413.11 453.84C413.69 453.84 414.28 453.83 414.87 453.83C415.61 454.06 416.35 454.28 417.09 454.5C415.12 454.5 413.14 454.5 411.17 454.5C411.81 454.28 412.46 454.06 413.11 453.84ZM435.92 458.86C434.89 459.57 433.85 460.28 432.82 460.99C433.71 459.97 434.61 458.96 435.5 457.95C435.64 458.25 435.78 458.55 435.92 458.86ZM715.16 483.95C715.38 485.62 715.61 487.29 715.83 488.96C715.94 492.59 716.06 496.22 716.17 499.86C716.39 501.55 716.61 503.25 716.83 504.95C716.93 508.68 717.03 512.4 717.13 516.13C717.36 517.73 717.6 519.34 717.83 520.94C717.93 524.3 718.03 527.66 718.13 531.03C718.37 532.65 718.6 534.28 718.83 535.91C719.58 548.99 720.34 562.07 721.09 575.15C721.01 576.6 720.93 578.05 720.84 579.5C721.16 579.72 721.48 579.94 721.8 580.16C721.81 584.78 721.82 589.39 721.83 594.01C720.02 591.48 720.75 587.21 720.53 583.87C719.92 575.04 719.45 566.34 719.07 557.5C718.33 539.84 716.35 522.16 715.24 504.5C714.54 493.31 715.24 481.5 712.96 470.5C711.95 470.36 710.94 470.23 709.93 470.09C711.12 469.69 712.31 469.29 713.5 468.89C716.18 472.72 715.12 479.32 715.16 483.95ZM597.19 655.79C597.41 657.49 597.62 659.18 597.84 660.88C598.1 665.75 599.85 673.14 598 677.5C589.43 675.27 575.32 665.99 567.31 661.2C547.59 649.4 527.2 638.69 507.37 627.08C499.99 622.77 481.83 614.45 478.66 606.81C475.14 598.33 475.84 582.99 474.94 573.5C472.32 546.08 471.54 518.6 470.31 491C470.61 490.83 470.92 490.67 471.22 490.5C470.87 489.02 470.52 487.54 470.17 486.05C470.17 485.71 470.17 485.37 470.17 485.03C470.48 483.52 470.8 482.01 471.11 480.5C470.83 480.33 470.56 480.17 470.28 480C470.69 478.28 471.09 476.55 471.5 474.83C475.95 476.37 479.95 479.15 484.08 481.42C490.97 485.19 497.94 488.81 504.7 492.79C522.4 503.22 540.65 512.97 558.67 522.83C566.18 526.95 573.84 530.95 581.19 535.36C583.85 536.96 588.02 538.1 589.36 541.15C590.47 543.69 589.9 546.77 590.25 549.49C591.45 558.77 591.4 568.16 592.03 577.5C592.84 589.49 593.88 601.51 594.86 613.5C595.13 616.83 594.77 620.18 595.07 623.5C596.06 634.23 597.05 644.99 597.19 655.79ZM585.73 484.29C578.83 485.67 569.79 493.14 576.38 500.16C582.95 507.16 604.77 509.14 609.44 498.93C615.31 486.1 593.57 482.71 585.73 484.29ZM694.09 497.07C692.7 497.08 691.31 497.08 689.92 497.09C689.28 496.89 688.65 496.7 688.01 496.5C689.84 496.35 691.67 496.19 693.5 496.04C693.7 496.38 693.9 496.73 694.09 497.07ZM700.17 506.04C699.27 502.45 697.97 500.07 695 497.83C695.17 497.5 695.33 497.16 695.5 496.82C698.99 499.01 700.37 501.53 701.37 505.5C700.97 505.68 700.57 505.86 700.17 506.04ZM686.01 498.89C684.36 500.41 682.72 501.92 681.07 503.44C680.78 503.13 680.49 502.81 680.21 502.5C681.97 500.98 683.74 499.47 685.5 497.95C685.67 498.27 685.84 498.58 686.01 498.89ZM493.65 503.32C487.28 503.78 485.84 510.39 485.98 515.5C486.25 524.56 494.48 538.55 505.33 535.81C510.49 534.5 511.16 528.9 511.02 524.5C510.77 516.73 502.92 502.66 493.65 503.32ZM699.87 517.98C700.2 514.97 700.53 511.96 700.86 508.95C701.07 507.87 701.29 506.78 701.5 505.7C702.06 510.7 701.66 514.61 700.5 519.45C700.29 518.96 700.08 518.47 699.87 517.98ZM676.08 512.92C675.99 513.9 675.89 514.88 675.8 515.86C675.47 516.07 675.14 516.29 674.81 516.5C674.71 518.72 674.6 520.94 674.5 523.17C674.04 518.76 674.44 515.35 675.5 511.08C675.69 511.69 675.89 512.31 676.08 512.92ZM641.21 514.01C641.03 514.51 640.85 515 640.67 515.5C639.28 516.34 637.89 517.18 636.5 518.02C636.31 517.68 636.11 517.33 635.92 516.99C637.68 516 639.44 515 641.21 514.01ZM699.12 519.76C699.38 520.01 699.65 520.25 699.91 520.5C699.11 522.1 698.3 523.69 697.5 525.29C697.32 524.9 697.13 524.51 696.95 524.11C697.67 522.66 698.39 521.21 699.12 519.76ZM675.83 522.98C676.66 525.92 677.68 528.08 679.93 530.17C679.79 530.49 679.64 530.82 679.5 531.14C676.73 529.14 675.54 526.83 674.79 523.5C675.14 523.33 675.49 523.15 675.83 522.98ZM624.17 524.98C623.29 526.73 622.51 527.18 620.5 528.22C620.36 527.88 620.22 527.54 620.08 527.2C621.45 526.46 622.81 525.72 624.17 524.98ZM695.94 525.59C696.23 525.89 696.53 526.2 696.82 526.5C695.38 527.76 693.94 529.01 692.5 530.27C692.37 529.93 692.23 529.58 692.1 529.24C693.38 528.02 694.66 526.8 695.94 525.59ZM602.32 539.01C601.79 540.56 600.51 542.69 600.39 544.6C600.04 549.94 601.11 556.19 601.66 561.55C602.37 568.51 602.22 575.54 602.86 582.5C604.73 602.76 605.25 623.2 606.83 643.5C607.62 653.59 606.59 666.64 610.21 675.87C609.34 675.6 608.92 676.15 608.24 675.26C607.05 673.7 606.07 657.46 606.01 654.5C605.62 632.94 602.63 611.42 601.88 589.86C601.64 588.21 601.41 586.57 601.18 584.92C600.46 573.56 599.24 561.83 599.03 550.5C598.94 546.01 598.02 541.45 602.32 539.01ZM431.98 646.5C429.88 650.57 422.73 652.95 418.57 655.07C407.96 660.47 397.19 665.59 386.71 671.22C372.31 678.96 357.58 686.24 342.89 693.41C337.17 696.21 328.64 702.13 322.5 702.94C313.06 704.19 301.39 693.71 293.96 688.52C274.72 675.06 255.33 661.75 235.89 648.58C230.65 645.03 216.57 637.36 213.99 632.5C216.55 627.77 222.81 625.4 227.48 623.01C238.06 617.58 248.75 612.31 259.27 606.76C272.59 599.75 285.86 592.63 299.26 585.75C306.07 582.25 313.69 576.7 321.5 576.03C331.9 575.13 342.47 584.58 350.66 589.89C369.01 601.8 387.11 614.02 405.14 626.4C412.69 631.58 426.94 639.34 431.98 646.5ZM639.06 601.84C637.66 602.24 636.26 602.65 634.87 603.05C634.45 602.87 634.03 602.68 633.61 602.5C636.62 600.89 638.77 600.37 642.15 600.5C641.12 600.95 640.09 601.39 639.06 601.84ZM719.09 600.97C718.01 601.97 716.92 602.98 715.84 603.99C716.72 602.59 717.61 601.19 718.5 599.79C718.7 600.18 718.89 600.58 719.09 600.97ZM647.97 607.27C646.36 604.72 644.8 603.03 642 601.83C642.17 601.47 642.33 601.1 642.5 600.74C645.55 601.95 647.39 603.6 648.93 606.5C648.61 606.76 648.29 607.02 647.97 607.27ZM633.4 604.05C631.96 605.53 630.53 607.01 629.1 608.49C628.85 608.16 628.6 607.83 628.35 607.5C629.73 606.06 631.12 604.63 632.5 603.19C632.8 603.48 633.1 603.77 633.4 604.05ZM628.09 609.97C627.38 611.39 626.68 612.81 625.97 614.24C625.67 613.99 625.37 613.75 625.08 613.5C625.88 611.93 626.69 610.36 627.5 608.78C627.7 609.18 627.89 609.57 628.09 609.97ZM554.76 610.29C549.93 611.9 548.84 618.17 548.98 622.5C549.32 632.66 561.07 649.95 572.79 642.35C577.35 639.4 577.52 632.98 576.26 628.35C573.95 619.89 565.46 606.73 554.76 610.29ZM646 629.26C647.73 623.69 649.7 619.09 649.84 613.09C650.19 612.89 650.55 612.7 650.9 612.5C650.94 617.75 650.8 626.54 646 629.26ZM697 617.94C695.98 618.65 694.96 619.35 693.94 620.06C693.59 619.88 693.25 619.69 692.91 619.5C694.11 618.64 695.3 617.77 696.5 616.91C696.67 617.25 696.83 617.6 697 617.94ZM624.08 619.84C623.87 626.14 624.24 631 628.41 635.95C627.99 636.13 627.58 636.32 627.16 636.5C622.49 630.7 622.46 624.74 623.5 617.55C623.69 618.32 623.89 619.08 624.08 619.84ZM322.53 622.35C315.49 622.85 300.92 628.67 307.1 638.36C312.38 646.63 329.71 646.86 336.95 641.47C350.17 631.62 332.33 621.65 322.53 622.35ZM645.15 630.06C645.51 630.21 645.87 630.35 646.23 630.5C643.99 632.65 641.74 634.79 639.5 636.94C639.31 636.66 639.11 636.37 638.92 636.09C640.99 634.08 643.07 632.07 645.15 630.06ZM638.05 636.96C636.18 639.43 633.76 638.94 630.61 638.5C631.1 638.28 631.59 638.06 632.08 637.84C634.07 637.55 636.06 637.26 638.05 636.96ZM311.83 757.1C311.61 760.1 311.39 763.1 311.17 766.1C311.05 773.71 310.94 781.33 310.82 788.94C310.6 791.6 310.37 794.26 310.15 796.92C310.04 804.29 309.93 811.65 309.83 819.02C309.61 822.05 309.39 825.09 309.17 828.12C308.95 834.4 308.72 840.67 308.5 846.95C300.32 845.62 287.25 835.33 279.86 830.6C260.54 818.24 240.89 806.4 221.85 793.61C215.88 789.6 202.72 783.09 200.37 776.2C198.8 771.62 198.96 766.77 199.2 762C199.46 761.83 199.73 761.67 199.99 761.5C200.07 759.83 200.14 758.17 200.22 756.5C199.92 756.33 199.63 756.17 199.33 756C200.87 743.96 200.39 731.61 201.05 719.5C201.88 704.2 203.17 688.7 204.87 673.5C206.04 662.97 204.76 650.73 209.5 641.02C217.1 644.94 224.02 650.63 231.06 655.46C249.27 667.94 267.48 680.38 285.64 692.93C292.14 697.43 298.65 701.9 305.15 706.39C307.25 707.84 311.33 709.54 312.52 711.94C314.11 715.14 312.98 720.97 312.98 724.5C312.98 735.33 312.41 746.29 311.83 757.1ZM659.38 644.04C656.81 645.69 654.24 647.34 651.68 648.99C651.83 648.49 651.98 648 652.14 647.5C654.26 646.04 656.38 644.58 658.5 643.13C658.79 643.43 659.09 643.73 659.38 644.04ZM438.16 700.16C438.16 711.79 438.16 723.42 438.17 735.05C439.61 744.14 438.15 754.3 438.04 763.5C437.94 770.8 439.15 779.05 436.84 786.03C435.44 783.13 436.83 778.9 436.88 775.5C437 766.83 437.09 758.17 437.11 749.5C437.2 718.98 438.81 687.88 435.82 657.5C434.79 657.32 433.75 657.14 432.72 656.97C433.98 656.34 435.24 655.71 436.5 655.08C439.29 666.17 438.89 688.35 438.16 700.16ZM242.2 696.08C242.51 695.88 242.83 695.69 243.14 695.5C243.16 693.83 243.18 692.17 243.19 690.5C242.86 690.31 242.53 690.12 242.2 689.93C241.39 683.38 237.86 676.01 232.35 672.08C227.97 668.95 221.56 669.06 218.53 674.01C213.74 681.82 218.2 695.14 225.09 700.45C231.52 705.42 239.88 704.53 242.2 696.08ZM617.41 672.05C616.18 672.7 614.96 673.35 613.73 674C614.65 673.07 615.58 672.15 616.5 671.23C616.8 671.5 617.11 671.78 617.41 672.05ZM399.06 673.93C399.48 674.12 399.89 674.31 400.3 674.5C398.7 675.3 397.1 676.11 395.5 676.91C395.27 676.6 395.04 676.29 394.82 675.98C396.23 675.3 397.65 674.61 399.06 673.93ZM393.14 676.96C393.2 677.16 393.83 677.24 393.75 677.6C393.5 678.69 389.77 679.91 388.84 680.36C386 681.74 376.68 687.54 374.33 687.76C373.22 687.86 373.52 687.4 372.87 687.11C379.63 683.72 386.38 680.34 393.14 676.96ZM422.14 682C417.26 680.64 414.37 681.52 409.7 683C409.89 682.5 410.08 682 410.27 681.5C413.89 679.79 419.9 678.33 422.14 682ZM408.93 683.87C402.44 689.38 398.1 696.22 398.14 704.95C398.09 705.09 397.81 706.71 397.54 706.66C397.13 706.58 397.37 705.82 397.11 705.5C397 698.58 398.69 693.07 403.09 687.63C404.63 685.74 406.82 682.84 408.93 683.87ZM424.01 683.83C424.51 684.02 425 684.21 425.5 684.39C427.48 688.3 427.39 692.23 426.87 696.5C426.55 696.7 426.23 696.89 425.9 697.09C426.05 692.18 425.78 688.4 424.01 683.83ZM360.26 693.99C358.8 696.43 355.4 697.65 352.5 698.97C352.26 698.64 352.02 698.31 351.79 697.97C354.61 696.65 357.44 695.32 360.26 693.99ZM344.12 701.94C344.25 702.28 344.37 702.62 344.5 702.96C339.5 705.58 334.5 708.2 329.5 710.83C329.01 710.6 328.52 710.38 328.03 710.15C333.39 707.42 338.76 704.68 344.12 701.94ZM421.17 706.08C421.52 706.22 421.86 706.36 422.2 706.5C420.63 708.05 419.07 709.6 417.5 711.15C417.37 710.82 417.24 710.5 417.1 710.18C418.46 708.81 419.82 707.45 421.17 706.08ZM281.67 708.21C276.76 709.46 275 715.12 274.98 719.5C274.94 728.63 284.18 744.43 295.24 738.68C299.37 736.54 299.98 731.42 299.28 727.33C298 719.81 291.61 705.69 281.67 708.21ZM327.24 710.98C327.06 711.49 326.88 711.99 326.71 712.5C325.97 713.04 325.24 713.59 324.5 714.13C324.29 713.76 324.08 713.38 323.87 713.01C324.99 712.34 326.12 711.66 327.24 710.98ZM416.29 711.01C415.09 712.92 413.89 713.38 411.5 714.12C411.33 713.81 411.17 713.49 411 713.17C412.77 712.45 414.53 711.73 416.29 711.01ZM405.95 713.9C406.99 713.9 408.03 713.89 409.07 713.89C409.73 714.1 410.39 714.3 411.05 714.5C408.77 714.5 406.49 714.5 404.21 714.5C404.79 714.3 405.37 714.1 405.95 713.9ZM322.93 714.57C324.18 717.39 323.24 722 323.12 725.5C322.87 732.84 323.23 740.11 322.57 747.44C321.95 754.46 322.38 761.48 321.89 768.5C320.81 784.04 320.09 799.91 319.99 815.5C319.94 823.17 319.68 830.84 319.68 838.5C319.68 841.87 320.47 846.25 319.14 849.07C316.57 841.52 317.99 831.89 318.3 824C318.62 823.83 318.94 823.67 319.26 823.5C319.12 821.93 318.98 820.35 318.83 818.78C318.98 809.19 319.12 799.59 319.26 790C319.57 789.83 319.88 789.67 320.19 789.5C320.08 787.36 319.97 785.23 319.86 783.09C319.96 776.35 320.07 769.6 320.17 762.85C320.4 759.94 320.63 757.03 320.85 754.12C320.96 747.46 321.07 740.79 321.18 734.13C321.38 731.63 321.58 729.14 321.78 726.64C322.17 722.62 322.55 718.59 322.93 714.57ZM391.09 729.02C390.42 728.95 389.76 728.88 389.1 728.8C388.9 728.48 388.7 728.16 388.5 727.83C387.17 727.78 385.83 727.73 384.5 727.68C384.28 728.04 384.06 728.39 383.84 728.75C382.45 729.17 381.05 729.58 379.66 729.99C379.89 729.5 380.12 729 380.34 728.5C383.96 727.21 388.65 725.76 391.09 729.02ZM249.53 729.18C243.81 729.87 241.4 736.47 242.11 741.47C243.39 750.45 252.21 764.18 262.99 760.49C267.67 758.89 268.4 753.82 268 749.5C267.24 741.24 259.21 728.01 249.53 729.18ZM394.95 732.4C393.91 731.58 392.87 730.75 391.83 729.93C392.06 729.63 392.28 729.32 392.5 729.02C393.63 729.85 394.76 730.67 395.89 731.5C395.58 731.8 395.27 732.1 394.95 732.4ZM378.91 730.8C376.99 732.56 375.07 734.33 373.16 736.09C373.78 733.19 376.04 731.44 378.5 729.57C378.64 729.98 378.77 730.39 378.91 730.8ZM397.16 737.13C396.76 736.05 396.35 734.96 395.95 733.87C396.13 733.42 396.32 732.97 396.5 732.52C397.07 733.85 397.64 735.17 398.21 736.5C397.86 736.71 397.51 736.92 397.16 737.13ZM397.89 746.1C397.89 743.73 397.89 741.36 397.89 738.99C398.1 738.28 398.3 737.58 398.5 736.87C398.63 739.75 398.77 742.62 398.9 745.5C398.56 745.7 398.22 745.9 397.89 746.1ZM371 739.74C369.87 745.06 368.9 749.54 369.1 755.1C368.74 754.9 368.39 754.7 368.03 754.5C366.98 749.99 367.39 742.55 371 739.74ZM218.68 746.23C213.64 747.33 213 753.29 212.98 757.5C212.96 765.9 220.46 781.87 231.2 778.63C235.65 777.29 237.28 771.61 236.97 767.5C236.38 759.57 228.57 744.07 218.68 746.23ZM397.19 747.07C397.59 747.21 397.99 747.36 398.38 747.5C397.42 749.91 396.46 752.31 395.5 754.72C395 754.87 394.5 755.03 394 755.18C395.07 752.48 396.13 749.77 397.19 747.07ZM375.82 762.97C376.51 763.05 377.2 763.13 377.89 763.22C378.1 763.57 378.3 763.92 378.5 764.26C380.04 764.34 381.59 764.42 383.13 764.5C379.91 764.81 377.94 765.13 375.82 762.97ZM361.35 785C360.94 784.92 360.52 784.84 360.1 784.76C359.9 784.4 359.7 784.04 359.5 783.68C357.61 783.62 355.72 783.56 353.82 783.5C356.14 783.5 358.46 783.5 360.78 783.5C360.97 784 361.16 784.5 361.35 785ZM276.59 784.14C271.8 785.21 270.95 790.45 270.98 794.5C271.04 803.12 280.65 820.11 291.31 813.84C302.88 807.04 288.81 781.4 276.59 784.14ZM364.16 787.93C363.48 787.2 362.79 786.47 362.1 785.74C362.24 785.4 362.37 785.07 362.5 784.73C363.39 785.66 364.27 786.58 365.16 787.5C364.83 787.64 364.5 787.79 364.16 787.93ZM347.9 787.8C346.36 789.25 344.83 790.69 343.29 792.14C343.74 789.48 345.31 788.35 347.5 786.6C347.63 787 347.77 787.4 347.9 787.8ZM434.99 788.81C433.98 789.9 432.96 790.99 431.95 792.07C431.62 791.88 431.29 791.69 430.96 791.5C432.3 790.6 433.65 789.71 434.99 788.81ZM365.89 801.96C365.87 798.33 365.85 794.7 365.82 791.07C366.05 790.62 366.27 790.17 366.5 789.71C367.8 793.86 367.97 797.28 366.89 801.5C366.55 801.65 366.22 801.8 365.89 801.96ZM342 793.86C338.9 801.86 337.84 804.24 338.04 813.24C334.82 808.59 336.6 796.91 342 793.86ZM359.96 812.62C360.22 812.91 360.48 813.21 360.75 813.5C359.66 814.56 358.58 815.63 357.5 816.69C357.2 816.45 356.91 816.2 356.61 815.96C357.73 814.84 358.84 813.73 359.96 812.62ZM396.09 813.9C394.7 814.62 393.31 815.34 391.93 816.07C391.46 815.88 390.99 815.69 390.53 815.5C392.18 814.68 393.84 813.86 395.5 813.03C395.7 813.32 395.89 813.61 396.09 813.9ZM339.75 816.1C340.54 816.99 341.33 817.88 342.11 818.77C340.17 818.38 340.04 818.23 338.78 816.5C339.11 816.37 339.43 816.23 339.75 816.1ZM387.05 818.9C385.65 819.62 384.26 820.33 382.87 821.04C382.51 820.86 382.16 820.68 381.81 820.5C383.37 819.68 384.94 818.86 386.5 818.04C386.68 818.32 386.87 818.61 387.05 818.9ZM345.9 819.88C346.9 819.87 347.9 819.85 348.9 819.84C349.41 820.06 349.92 820.28 350.43 820.5C348.3 820.5 346.18 820.5 344.05 820.5C344.67 820.29 345.29 820.09 345.9 819.88ZM374.04 825.88C372.65 826.6 371.25 827.32 369.86 828.04C369.44 827.86 369.02 827.68 368.6 827.5C370.23 826.68 371.87 825.86 373.5 825.04C373.68 825.32 373.86 825.6 374.04 825.88ZM351.1 837.88C348.34 839.27 345.59 840.66 342.83 842.05C342.39 841.86 341.95 841.68 341.5 841.5C344.5 840.03 347.5 838.55 350.5 837.08C350.7 837.35 350.9 837.61 351.1 837.88ZM341.17 843.03C339.43 843.67 337.7 844.32 335.96 844.97C337.47 844.01 338.99 843.05 340.5 842.09C340.72 842.4 340.95 842.71 341.17 843.03ZM335.96 844.97C334.63 845.66 333.29 846.35 331.96 847.04C333.29 846.35 334.63 845.66 335.96 844.97ZM329.11 848.85C327.71 849.26 326.31 849.67 324.91 850.08C324.11 849.89 323.31 849.69 322.51 849.5C324.51 848.96 326.5 848.43 328.5 847.89C328.7 848.21 328.91 848.53 329.11 848.85Z" fill="#ffffff" fill-rule="evenodd" stroke="#ffffff" stroke-width="0.25" stroke-linejoin="round"/>
<path d="M355.64 207.23C366.63 205.05 377.01 210.43 386.68 214.81C397.97 219.92 409.42 224.71 420.76 229.73C433.45 235.35 446.05 241.16 458.74 246.75C467.32 250.54 478.38 254.56 484.44 262.08C493.46 273.27 493.1 289.01 495.18 302.45C498.87 326.34 500.62 350.54 504.21 374.45C506.08 386.97 509.87 403.54 503.85 415.36C499.93 423.05 491.7 428.38 485.09 433.56C472.17 443.7 459.07 453.53 446.13 463.63C434.34 472.84 422.75 482.31 410.59 491.05C404.72 495.27 398.65 500.77 391.19 501.52C383.19 502.33 375.08 497.77 368.27 494.25C355.05 487.43 341.72 480.61 328.3 474.21C312.03 466.44 295.72 458.27 279.91 449.59C272.92 445.75 264.49 442.43 259.67 435.78C254.06 428.04 253.79 418.61 252.91 409.5C251.63 396.17 250.17 382.84 248.91 369.5C247.26 352.16 245.32 334.87 243.9 317.5C243.21 309.13 241.14 301 243.21 292.66C246.22 280.48 257.73 274.51 266.97 267.49C285.96 253.05 305.54 239.38 324.85 225.39C334.09 218.7 344.14 209.51 355.64 207.23ZM476.08 269.5C473.89 264.27 468.48 262.34 463.7 259.8C453.94 254.64 443.68 250.49 433.7 245.8C416.85 237.87 399.91 230 382.8 222.67C375.08 219.36 367.26 214.88 358.55 216.21C350.03 217.52 342.23 224.13 335.42 228.97C323.17 237.67 311.11 246.64 298.91 255.44C288.46 262.97 278.11 270.64 267.78 278.32C263.29 281.65 256.44 285.59 256.01 291.5C266.17 297.61 277.43 302.41 288.2 307.35C302.98 314.13 317.6 321.28 332.33 328.16C340.96 332.2 349.47 336.55 358.25 340.26C361.52 341.65 364.85 343.8 368.5 343.78C376.79 343.73 392.45 329.98 399.57 325.01C416.42 313.26 433.04 301.16 449.64 289.05C458.43 282.64 468.03 276.86 476.08 269.5ZM359.54 269.17C366.73 267.98 378.53 269.11 381.26 277.27C382.17 279.99 381.26 282.68 379.42 284.91C373.46 292.14 351.73 293.89 346.56 284.92C341.97 276.98 353.07 270.24 359.54 269.17ZM411.09 326.96C410.08 327.67 409.08 328.39 408.08 329.11C400.81 334.41 393.55 339.71 386.28 345.01C385.21 345.71 384.13 346.4 383.06 347.09C380.75 349.04 378.43 350.98 376.12 352.93C374.97 357.62 376.27 362.79 376.83 367.52C377.65 374.47 377.94 381.46 378.79 388.42C381.39 409.75 383.35 431.16 385.9 452.51C386.94 461.18 387.83 469.84 388.88 478.52C389.34 482.26 389.08 485.89 391.5 488.95C394.48 487.66 397.45 486.37 400.43 485.08C411.23 477.05 422.02 469.02 432.82 460.99C433.85 460.28 434.89 459.57 435.92 458.86C442.54 453.56 449.15 448.27 455.77 442.98C456.88 442.07 457.99 441.16 459.1 440.25C468 433.16 476.91 426.08 485.81 418.99C486.91 418.06 488 417.13 489.09 416.19C491.66 415.19 493.5 413.43 494.71 410.89C499.72 400.93 495.36 384.37 494.12 373.5C490.55 342.23 487.54 310.83 481.84 279.88C481.39 279.03 480.95 278.18 480.5 277.33C457.36 293.87 434.23 310.41 411.09 326.96ZM380.5 489C381.23 485.27 380.34 482.22 380.02 478.5C379.26 469.81 377.96 461.19 377.08 452.52C374.9 430.83 372.97 409.06 370.11 387.48C369 379.09 368.85 370.59 367.38 362.24C366.88 359.37 367.43 356.4 365.51 354.01C361.62 349.19 349.59 345.41 343.77 342.72C329 335.91 314.29 328.9 299.65 321.85C288.62 316.55 277.67 311.03 266.54 305.94C262.54 304.12 256.83 300.06 252.5 300.67C251.61 309.76 254.17 319.43 254.94 328.5C256.69 349.22 258.92 369.84 260.95 390.5C261.87 399.86 262.34 409.3 263.78 418.59C264.46 423.04 264.64 427.15 267.59 430.88C270.17 434.13 274.74 436.23 278.3 438.22C285.86 442.43 293.65 446.23 301.38 450.12C316.69 457.81 332.01 465.49 347.32 473.18C358.26 478.67 369.08 484.65 380.5 489ZM460.95 309.06C462.69 309.04 464.43 309.03 466.16 309.02C466.46 309.29 466.76 309.56 467.06 309.82C476.23 317.46 471.17 328.25 468.01 337.2C467.59 337.76 467.17 338.33 466.75 338.9C465.87 339.69 464.99 340.49 464.11 341.28C462.46 342.17 460.81 343.06 459.16 343.95C455.49 343.98 453.7 343.31 451.01 340.87C450.06 338.54 449.11 336.21 448.16 333.89C448.79 329.54 449.41 325.2 450.03 320.86C451.97 318.94 453.2 315.9 455.16 313.69C456.81 311.83 459.27 310.63 460.95 309.06ZM272.7 323.3C281.86 321.89 290.57 335.71 291.01 343.5C291.24 347.54 290.67 353.03 286.13 354.59C275.06 358.37 267.32 343.31 266.43 334.69C265.96 330.15 267.31 324.13 272.7 323.3ZM441.1 362.16C441.7 362.16 442.3 362.16 442.9 362.16C445.27 363.38 447.64 364.6 450.01 365.82C452.61 371.94 451.79 376.79 450.98 383.13C450.64 383.25 450.3 383.38 449.97 383.5C449.68 384.34 449.39 385.18 449.11 386.02C448.37 387.01 447.63 388.01 446.89 389.01C445.93 389.97 444.97 390.93 444.02 391.89C442.32 392.65 440.63 393.4 438.93 394.16C433.22 394.22 428.8 393.45 426.94 387.5C426.66 387.37 426.39 387.23 426.11 387.1C426.41 383.33 426.72 379.56 427.02 375.79C429.2 373.47 430.39 369.78 432.71 367.2C435.03 364.62 438.22 363.6 441.1 362.16ZM308.14 375.88C309.79 375.86 311.43 375.83 313.08 375.8C321.71 378.8 327.38 386.56 329.29 395.33C330.24 399.69 328.97 405.96 324.42 407.92C310.24 414.02 294.56 385.03 308.14 375.88ZM589 384.71C591 384.7 593 384.69 595 384.68C609.43 386.15 621.61 394.55 634.02 401.47C652.95 412.01 671.56 423.12 690.02 434.47C700.8 441.09 714.3 447.25 720.8 458.7C725.1 466.28 724.39 475.17 725.19 483.5C727.08 503.17 728.2 523.72 729.06 543.5C729.36 550.5 730.31 557.52 730.85 564.5C731.13 568.16 730.79 571.85 731.19 575.5C732.15 584.15 733.8 595.13 729.78 603.27C725.66 611.58 717.39 616.33 710.11 621.59C695.94 631.82 681.58 641.8 667.11 651.6C653.82 660.6 640.7 670.11 627.08 678.58C620.82 682.48 614.16 688.09 606.5 688.38C598.29 688.69 592.29 684.81 585.26 681.25C571.67 674.39 558.83 666.17 545.35 659.13C527.77 649.94 510.59 639.95 493.31 630.2C485.72 625.92 475.42 621.31 471.04 613.42C465.34 603.15 466.96 589.87 465.69 578.56C462.88 553.43 461.1 525.81 460.99 500.5C460.93 489.25 459.01 476.64 463.56 466.05C469.01 453.35 484.01 446.68 494.87 439.39C514.89 425.94 535.54 413.49 555.74 400.3C565.84 393.71 576.72 385.95 589 384.71ZM708.99 459.5C704.61 451.49 690.83 445.31 683.06 440.44C662.66 427.65 641.85 415.32 620.64 403.89C611.66 399.05 600.19 391.6 589.54 393.15C580.03 394.54 570.78 401.3 562.89 406.42C549.31 415.22 535.46 423.6 521.93 432.45C511.25 439.43 500.55 446.39 489.89 453.42C484.48 457 477.69 460.38 475.02 466.5C485.26 473.12 496.26 478.51 506.81 484.63C524.42 494.85 542.36 504.53 560.21 514.33C567.52 518.35 585.17 530.21 592.5 530.98C594.55 531.19 597.24 531.27 599.23 530.67C601.19 530.08 603.06 528.39 604.73 527.27C610.77 523.23 617.1 519.58 623.19 515.62C642.77 502.86 662.49 490.29 682.1 477.57C689.39 472.84 703.63 465.53 708.99 459.5ZM588.71 411.27C595.38 410.05 614.48 414.41 609.39 424.85C605.05 433.73 585.93 433.46 579.04 428.47C572.42 423.68 575.78 416.45 581.96 413.47C584.05 412.46 586.43 411.69 588.71 411.27ZM422.09 417.78C423.06 418.23 424.04 418.67 425.01 419.12C426.37 421.58 427.72 424.04 429.08 426.5C429.36 426.61 429.64 426.72 429.92 426.83C429.89 430.18 429.85 433.52 429.82 436.87C429.59 437.5 429.36 438.13 429.13 438.76C428.09 441.24 427.05 443.71 426.01 446.19C425.62 446.77 425.24 447.34 424.85 447.92C423.77 448.93 422.69 449.95 421.61 450.96C419.36 451.92 417.11 452.88 414.87 453.83C414.28 453.83 413.69 453.84 413.11 453.84C411.54 453.21 409.97 452.59 408.4 451.96C407.61 451.18 406.83 450.4 406.04 449.62C405.71 449.13 405.38 448.64 405.05 448.15C404.65 447.01 404.25 445.86 403.86 444.72C403.61 443.5 403.37 442.28 403.13 441.06C403.13 440.35 403.13 439.64 403.13 438.93C403.37 437.66 403.61 436.4 403.84 435.14C404.24 433.36 404.64 431.58 405.03 429.81C405.34 429.7 405.64 429.6 405.94 429.5C406.68 427.69 407.42 425.88 408.16 424.07C410.14 422.35 412.12 420.63 414.11 418.92C416.93 417.84 419.09 417.14 422.09 417.78ZM345.68 429.27C357.02 427.91 370.43 452.9 358.31 458.84C347.71 464.05 338.98 447.92 338.98 439.5C338.99 434.93 340.37 429.9 345.68 429.27ZM652.54 447.22C660.01 446.07 680.94 451.76 672.49 462.98C666.29 471.19 645.01 471.08 639.53 461.97C634.46 453.54 646.12 448.21 652.54 447.22ZM526.86 449.81C528.55 449.82 530.25 449.83 531.95 449.83C542.14 450.56 555.94 461.46 542.35 468.85C535.02 472.84 516.66 473.2 512.53 463.98C508.58 455.19 520.3 450.43 526.86 449.81ZM709.93 470.09C687.02 484.73 664.12 499.37 641.21 514.01C639.44 515 637.68 516 635.92 516.99C632.11 519.33 628.31 521.67 624.5 524.01C624.39 524.33 624.28 524.66 624.17 524.98C622.81 525.72 621.45 526.46 620.08 527.2C614.16 531.14 608.24 535.08 602.32 539.01C598.02 541.45 598.94 546.01 599.03 550.5C599.24 561.83 600.46 573.56 601.18 584.92C601.41 586.57 601.64 588.21 601.88 589.86C602.63 611.42 605.62 632.94 606.01 654.5C606.07 657.46 607.05 673.7 608.24 675.26C608.92 676.15 609.34 675.6 610.21 675.87C611.31 675.53 612.4 675.19 613.5 674.86C613.58 674.57 613.65 674.28 613.73 674C614.96 673.35 616.18 672.7 617.41 672.05C628.83 664.37 640.25 656.68 651.68 648.99C654.24 647.34 656.81 645.69 659.38 644.04C670.9 636.05 682.42 628.06 693.94 620.06C694.96 619.35 695.98 618.65 697 617.94C703.28 613.29 709.56 608.64 715.84 603.99C716.92 602.98 718.01 601.97 719.09 600.97C720 598.65 720.92 596.33 721.83 594.01C721.82 589.39 721.81 584.78 721.8 580.16C721.57 578.49 721.33 576.82 721.09 575.15C720.34 562.07 719.58 548.99 718.83 535.91C718.6 534.28 718.37 532.65 718.13 531.03C718.03 527.66 717.93 524.3 717.83 520.94C717.6 519.34 717.36 517.73 717.13 516.13C717.03 512.4 716.93 508.68 716.83 504.95C716.61 503.25 716.39 501.55 716.17 499.86C716.06 496.22 715.94 492.59 715.83 488.96C715.61 487.29 715.38 485.62 715.16 483.95C715.12 479.32 716.18 472.72 713.5 468.89C712.31 469.29 711.12 469.69 709.93 470.09ZM470.28 480C470.24 481.68 470.21 483.35 470.17 485.03C470.17 485.37 470.17 485.71 470.17 486.05C470.22 487.7 470.26 489.35 470.31 491C471.54 518.6 472.32 546.08 474.94 573.5C475.84 582.99 475.14 598.33 478.66 606.81C481.83 614.45 499.99 622.77 507.37 627.08C527.2 638.69 547.59 649.4 567.31 661.2C575.32 665.99 589.43 675.27 598 677.5C599.85 673.14 598.1 665.75 597.84 660.88C597.62 659.18 597.41 657.49 597.19 655.79C597.05 644.99 596.06 634.23 595.07 623.5C594.77 620.18 595.13 616.83 594.86 613.5C593.88 601.51 592.84 589.49 592.03 577.5C591.4 568.16 591.45 558.77 590.25 549.49C589.9 546.77 590.47 543.69 589.36 541.15C588.02 538.1 583.85 536.96 581.19 535.36C573.84 530.95 566.18 526.95 558.67 522.83C540.65 512.97 522.4 503.22 504.7 492.79C497.94 488.81 490.97 485.19 484.08 481.42C479.95 479.15 475.95 476.37 471.5 474.83C471.09 476.55 470.69 478.28 470.28 480ZM585.73 484.29C593.57 482.71 615.31 486.1 609.44 498.93C604.77 509.14 582.95 507.16 576.38 500.16C569.79 493.14 578.83 485.67 585.73 484.29ZM689.92 497.09C691.31 497.08 692.7 497.08 694.09 497.07C694.4 497.33 694.7 497.58 695 497.83C697.97 500.07 699.27 502.45 700.17 506.04C700.4 507.01 700.63 507.98 700.86 508.95C700.53 511.96 700.2 514.97 699.87 517.98C699.62 518.58 699.37 519.17 699.12 519.76C698.39 521.21 697.67 522.66 696.95 524.11C696.61 524.6 696.28 525.09 695.94 525.59C694.66 526.8 693.38 528.02 692.1 529.24C687.81 531.08 684.5 531.81 679.93 530.17C677.68 528.08 676.66 525.92 675.83 522.98C675.82 520.6 675.81 518.23 675.8 515.86C675.89 514.88 675.99 513.9 676.08 512.92C677.75 509.76 679.41 506.6 681.07 503.44C682.72 501.92 684.36 500.41 686.01 498.89C687.31 498.29 688.61 497.69 689.92 497.09ZM493.65 503.32C502.92 502.66 510.77 516.73 511.02 524.5C511.16 528.9 510.49 534.5 505.33 535.81C494.48 538.55 486.25 524.56 485.98 515.5C485.84 510.39 487.28 503.78 493.65 503.32ZM318.7 567.31C328.44 565.65 337.59 571.16 345.6 575.96C360.67 585 375.16 595.05 389.67 604.92C402.17 613.43 414.68 621.85 427.12 630.41C433.3 634.65 440.19 638.86 443.85 645.66C449.52 656.18 447.88 669.9 448.25 681.5C449.06 706.81 449.09 732.17 448.82 757.5C448.71 768.26 450.84 785.75 444.46 794.94C438.92 802.93 428.85 807.49 420.75 812.29C405.76 821.16 390.45 829.37 375.13 837.63C364.69 843.25 354.16 848.68 343.65 854.16C336.98 857.64 329.22 862.01 321.5 861.97C313.15 861.92 304.78 856.84 297.84 852.63C285.25 844.99 272.66 837.23 260.29 829.23C245.3 819.55 230.24 809.8 215 800.53C206.66 795.45 196.85 790.31 192.15 781.35C187.36 772.23 189.2 761.33 189.81 751.5C190.63 738.15 190.81 724.82 191.88 711.5C193.2 695.16 193.71 678.7 195.8 662.47C197.1 652.36 196.96 641.45 201.59 632.1C206.94 621.29 220.38 617.15 230.25 611.72C249.05 601.37 268.41 591.96 287.37 581.89C297.12 576.71 307.67 569.19 318.7 567.31ZM431.98 646.5C426.94 639.34 412.69 631.58 405.14 626.4C387.11 614.02 369.01 601.8 350.66 589.89C342.47 584.58 331.9 575.13 321.5 576.03C313.69 576.7 306.07 582.25 299.26 585.75C285.86 592.63 272.59 599.75 259.27 606.76C248.75 612.31 238.06 617.58 227.48 623.01C222.81 625.4 216.55 627.77 213.99 632.5C216.57 637.36 230.65 645.03 235.89 648.58C255.33 661.75 274.72 675.06 293.96 688.52C301.39 693.71 313.06 704.19 322.5 702.94C328.64 702.13 337.17 696.21 342.89 693.41C357.58 686.24 372.31 678.96 386.71 671.22C397.19 665.59 407.96 660.47 418.57 655.07C422.73 652.95 429.88 650.57 431.98 646.5ZM639.06 601.84C640.04 601.83 641.02 601.83 642 601.83C644.8 603.03 646.36 604.72 647.97 607.27C648.6 609.21 649.22 611.15 649.84 613.09C649.7 619.09 647.73 623.69 646 629.26C645.72 629.53 645.44 629.8 645.15 630.06C643.07 632.07 640.99 634.08 638.92 636.09C638.63 636.38 638.34 636.67 638.05 636.96C636.06 637.26 634.07 637.55 632.08 637.84C630.85 637.21 629.63 636.58 628.41 635.95C624.24 631 623.87 626.14 624.08 619.84C624.71 617.98 625.34 616.11 625.97 614.24C626.68 612.81 627.38 611.39 628.09 609.97C628.43 609.47 628.76 608.98 629.1 608.49C630.53 607.01 631.96 605.53 633.4 604.05C633.89 603.72 634.38 603.39 634.87 603.05C636.26 602.65 637.66 602.24 639.06 601.84ZM554.76 610.29C565.46 606.73 573.95 619.89 576.26 628.35C577.52 632.98 577.35 639.4 572.79 642.35C561.07 649.95 549.32 632.66 548.98 622.5C548.84 618.17 549.93 611.9 554.76 610.29ZM322.53 622.35C332.33 621.65 350.17 631.62 336.95 641.47C329.71 646.86 312.38 646.63 307.1 638.36C300.92 628.67 315.49 622.85 322.53 622.35ZM199.33 756C199.29 758 199.25 760 199.2 762C198.96 766.77 198.8 771.62 200.37 776.2C202.72 783.09 215.88 789.6 221.85 793.61C240.89 806.4 260.54 818.24 279.86 830.6C287.25 835.33 300.32 845.62 308.5 846.95C308.72 840.67 308.95 834.4 309.17 828.12C309.39 825.09 309.61 822.05 309.83 819.02C309.93 811.65 310.04 804.29 310.15 796.92C310.37 794.26 310.6 791.6 310.82 788.94C310.94 781.33 311.05 773.71 311.17 766.1C311.39 763.1 311.61 760.1 311.83 757.1C312.41 746.29 312.98 735.33 312.98 724.5C312.98 720.97 314.11 715.14 312.52 711.94C311.33 709.54 307.25 707.84 305.15 706.39C298.65 701.9 292.14 697.43 285.64 692.93C267.48 680.38 249.27 667.94 231.06 655.46C224.02 650.63 217.1 644.94 209.5 641.02C204.76 650.73 206.04 662.97 204.87 673.5C203.17 688.7 201.88 704.2 201.05 719.5C200.39 731.61 200.87 743.96 199.33 756ZM432.72 656.97C421.5 662.62 410.28 668.28 399.06 673.93C397.65 674.61 396.23 675.3 394.82 675.98C394.26 676.3 393.7 676.63 393.14 676.96C386.38 680.34 379.63 683.72 372.87 687.11C368.74 689.1 364.62 691.09 360.5 693.08C360.42 693.38 360.34 693.69 360.26 693.99C357.44 695.32 354.61 696.65 351.79 697.97C349.23 699.3 346.68 700.62 344.12 701.94C338.76 704.68 333.39 707.42 328.03 710.15C327.76 710.43 327.5 710.71 327.24 710.98C326.12 711.66 324.99 712.34 323.87 713.01C323.56 713.53 323.25 714.05 322.93 714.57C322.55 718.59 322.17 722.62 321.78 726.64C321.58 729.14 321.38 731.63 321.18 734.13C321.07 740.79 320.96 747.46 320.85 754.12C320.63 757.03 320.4 759.94 320.17 762.85C320.07 769.6 319.96 776.35 319.86 783.09C319.66 785.4 319.46 787.7 319.26 790C319.12 799.59 318.98 809.19 318.83 818.78C318.65 820.52 318.48 822.26 318.3 824C317.99 831.89 316.57 841.52 319.14 849.07C320.65 851.35 322.58 851.36 324.91 850.08C326.31 849.67 327.71 849.26 329.11 848.85C329.91 848.58 330.7 848.31 331.5 848.04C331.65 847.7 331.81 847.37 331.96 847.04C333.29 846.35 334.63 845.66 335.96 844.97C337.7 844.32 339.43 843.67 341.17 843.03C341.73 842.7 342.28 842.37 342.83 842.05C345.59 840.66 348.34 839.27 351.1 837.88C357.35 834.6 363.61 831.32 369.86 828.04C371.25 827.32 372.65 826.6 374.04 825.88C376.98 824.27 379.92 822.66 382.87 821.04C384.26 820.33 385.65 819.62 387.05 818.9C388.67 817.96 390.3 817.01 391.93 816.07C393.31 815.34 394.7 814.62 396.09 813.9C408.04 806.62 420 799.35 431.95 792.07C432.96 790.99 433.98 789.9 434.99 788.81C435.32 788.71 435.65 788.6 435.98 788.5C436.26 787.68 436.55 786.86 436.84 786.03C439.15 779.05 437.94 770.8 438.04 763.5C438.15 754.3 439.61 744.14 438.17 735.05C438.16 723.42 438.16 711.79 438.16 700.16C438.89 688.35 439.29 666.17 436.5 655.08C435.24 655.71 433.98 656.34 432.72 656.97ZM242.2 689.93C242.2 691.98 242.2 694.03 242.2 696.08C239.88 704.53 231.52 705.42 225.09 700.45C218.2 695.14 213.74 681.82 218.53 674.01C221.56 669.06 227.97 668.95 232.35 672.08C237.86 676.01 241.39 683.38 242.2 689.93ZM422.14 682C422.76 682.61 423.38 683.22 424.01 683.83C425.78 688.4 426.05 692.18 425.9 697.09C425.61 697.22 425.31 697.36 425.02 697.5C423.74 700.36 422.46 703.22 421.17 706.08C419.82 707.45 418.46 708.81 417.1 710.18C416.83 710.46 416.56 710.73 416.29 711.01C414.53 711.73 412.77 712.45 411 713.17C410.36 713.41 409.72 713.65 409.07 713.89C408.03 713.89 406.99 713.9 405.95 713.9C400.83 710.87 400.8 710.03 398.14 704.95C398.1 696.22 402.44 689.38 408.93 683.87C409.19 683.58 409.45 683.29 409.7 683C414.37 681.52 417.26 680.64 422.14 682ZM281.67 708.21C291.61 705.69 298 719.81 299.28 727.33C299.98 731.42 299.37 736.54 295.24 738.68C284.18 744.43 274.94 728.63 274.98 719.5C275 715.12 276.76 709.46 281.67 708.21ZM249.53 729.18C259.21 728.01 267.24 741.24 268 749.5C268.4 753.82 267.67 758.89 262.99 760.49C252.21 764.18 243.39 750.45 242.11 741.47C241.4 736.47 243.81 729.87 249.53 729.18ZM383.84 728.75C385.59 728.77 387.35 728.79 389.1 728.8C389.76 728.88 390.42 728.95 391.09 729.02C391.34 729.33 391.59 729.63 391.83 729.93C392.87 730.75 393.91 731.58 394.95 732.4C395.28 732.89 395.62 733.38 395.95 733.87C396.35 734.96 396.76 736.05 397.16 737.13C397.41 737.75 397.65 738.37 397.89 738.99C397.89 741.36 397.89 743.73 397.89 746.1C397.66 746.42 397.42 746.74 397.19 747.07C396.13 749.77 395.07 752.48 394 755.18C387.43 760.01 387.76 763.31 377.89 763.22C377.2 763.13 376.51 763.05 375.82 762.97C375.71 762.68 375.61 762.4 375.5 762.11C372.57 760.46 370.98 758.73 369.97 755.5C369.68 755.37 369.39 755.23 369.1 755.1C368.9 749.54 369.87 745.06 371 739.74C371.31 739.66 371.61 739.58 371.91 739.5C372.32 738.36 372.74 737.23 373.16 736.09C375.07 734.33 376.99 732.56 378.91 730.8C379.16 730.53 379.41 730.26 379.66 729.99C381.05 729.58 382.45 729.17 383.84 728.75ZM218.68 746.23C228.57 744.07 236.38 759.57 236.97 767.5C237.28 771.61 235.65 777.29 231.2 778.63C220.46 781.87 212.96 765.9 212.98 757.5C213 753.29 213.64 747.33 218.68 746.23ZM276.59 784.14C288.81 781.4 302.88 807.04 291.31 813.84C280.65 820.11 271.04 803.12 270.98 794.5C270.95 790.45 271.8 785.21 276.59 784.14ZM360.1 784.76C360.52 784.84 360.94 784.92 361.35 785C361.6 785.24 361.85 785.49 362.1 785.74C362.79 786.47 363.48 787.2 364.16 787.93C364.72 788.98 365.27 790.03 365.82 791.07C365.85 794.7 365.87 798.33 365.89 801.96C363.92 805.51 361.94 809.06 359.96 812.62C358.84 813.73 357.73 814.84 356.61 815.96C354.04 817.25 351.47 818.54 348.9 819.84C347.9 819.85 346.9 819.87 345.9 819.88C344.64 819.51 343.38 819.14 342.11 818.77C341.33 817.88 340.54 816.99 339.75 816.1C339.47 815.23 339.19 814.37 338.91 813.5C338.62 813.41 338.33 813.32 338.04 813.24C337.84 804.24 338.9 801.86 342 793.86C342.43 793.28 342.86 792.71 343.29 792.14C344.83 790.69 346.36 789.25 347.9 787.8C352.1 785.61 355.2 784.56 360.1 784.76Z" fill="#080505" fill-rule="evenodd" stroke="#080505" stroke-width="0.25" stroke-linejoin="round"/>
<path d="M481.84 279.88C481.65 280.21 481.09 280.26 480.98 280.62C480.36 282.5 481.61 284.71 481.91 286.54C482.74 291.49 483.35 296.53 484.01 301.5C486.77 322.16 489.01 342.88 491.98 363.51C493.6 374.82 494.65 386.37 495.61 397.75C495.86 400.67 495.57 404.49 494.84 407.32C494.58 408.33 493.27 409.7 493.51 410.78C493.69 411.62 494.33 410.85 494.71 410.89C493.5 413.43 491.66 415.19 489.09 416.19C486.91 416.71 486.65 417.02 485.81 418.99C476.91 426.08 468 433.16 459.1 440.25C456.83 440.66 456.61 440.95 455.77 442.98C449.15 448.27 442.54 453.56 435.92 458.86C435.78 458.55 435.64 458.25 435.5 457.95C434.61 458.96 433.71 459.97 432.82 460.99C422.02 469.02 411.23 477.05 400.43 485.08C397.45 485.67 394.48 486.26 391.5 486.86C389.34 476.9 389.12 466.62 387.84 456.51C385.01 434.22 383.04 411.79 380.16 389.47C379.23 382.28 378.33 374.76 378.07 367.5C377.92 363.22 378.26 356.3 376.12 352.93C378.43 350.98 380.75 349.04 383.06 347.09C383.21 347.41 383.35 347.73 383.5 348.05C384.43 347.04 385.36 346.03 386.28 345.01C393.55 339.71 400.81 334.41 408.08 329.11C408.22 329.44 408.36 329.76 408.5 330.09C409.7 329.23 410.91 328.36 412.11 327.5C411.77 327.32 411.43 327.14 411.09 326.96C434.23 310.41 457.36 293.87 480.5 277.33C480.95 278.18 481.39 279.03 481.84 279.88ZM460.95 309.06C459.27 310.63 456.81 311.83 455.16 313.69C453.2 315.9 451.97 318.94 450.03 320.86C445.97 323.94 446.98 331.4 447.5 336.23C447.72 335.45 447.94 334.67 448.16 333.89C449.11 336.21 450.06 338.54 451.01 340.87C450.69 341.08 450.38 341.29 450.06 341.5C453.52 345.07 456.03 345.15 460.9 344.5C460.32 344.32 459.74 344.13 459.16 343.95C460.81 343.06 462.46 342.17 464.11 341.28C464.24 341.61 464.37 341.93 464.5 342.25C465.25 341.13 466 340.01 466.75 338.9C467.17 338.33 467.59 337.76 468.01 337.2C475.67 332.78 474.63 316.48 469.5 310.12C468.69 310.02 467.87 309.92 467.06 309.82C466.76 309.56 466.46 309.29 466.16 309.02C465.94 308.69 465.72 308.36 465.5 308.03C464.17 308.04 462.83 308.04 461.5 308.05C461.32 308.38 461.14 308.72 460.95 309.06ZM441.1 362.16C438.22 363.6 435.03 364.62 432.71 367.2C430.39 369.78 429.2 373.47 427.02 375.79C424.46 378.35 424.56 382.72 425.03 386.5C425.39 386.7 425.75 386.9 426.11 387.1C426.39 387.23 426.66 387.37 426.94 387.5C428.8 393.45 433.22 394.22 438.93 394.16C439.12 394.46 439.31 394.76 439.5 395.06C441.32 394.2 443.14 393.35 444.96 392.5C444.65 392.3 444.33 392.09 444.02 391.89C444.97 390.93 445.93 389.97 446.89 389.01C447.09 389.33 447.3 389.64 447.5 389.95C448.33 388.8 449.16 387.65 450 386.5C449.7 386.34 449.4 386.18 449.11 386.02C449.39 385.18 449.68 384.34 449.97 383.5C450.3 383.38 450.64 383.25 450.98 383.13C454.94 379.71 454.89 368.38 450.01 365.82C447.64 364.6 445.27 363.38 442.9 362.16C443.69 361.94 444.48 361.72 445.27 361.5C443.19 361.5 441.11 361.5 439.03 361.5C439.72 361.72 440.41 361.94 441.1 362.16ZM313.08 375.8C311.43 375.83 309.79 375.86 308.14 375.88C309.59 375.54 311.05 375.19 312.5 374.85C312.69 375.17 312.89 375.48 313.08 375.8ZM595 384.68C593 384.69 591 384.7 589 384.71C589.17 384.39 589.33 384.07 589.5 383.75C591.17 383.75 592.83 383.74 594.5 383.74C594.67 384.05 594.83 384.36 595 384.68ZM414.11 418.92C413.9 418.6 413.7 418.28 413.5 417.96C410.87 419.5 408.8 421.19 408.16 424.07C407.42 425.88 406.68 427.69 405.94 429.5C405.64 429.6 405.34 429.7 405.03 429.81C404.25 431.37 403.47 432.94 402.69 434.5C403.08 434.71 403.46 434.93 403.84 435.14C403.61 436.4 403.37 437.66 403.13 438.93C402.92 437.54 402.71 436.16 402.5 434.78C402.5 437.98 402.5 441.18 402.5 444.38C402.71 443.27 402.92 442.17 403.13 441.06C403.37 442.28 403.61 443.5 403.86 444.72C403.57 444.98 403.29 445.24 403.01 445.5C403.5 446.82 404 448.15 404.5 449.47C404.68 449.03 404.86 448.59 405.05 448.15C405.38 448.64 405.71 449.13 406.04 449.62C405.74 449.91 405.45 450.21 405.16 450.5C405.94 451.28 406.72 452.07 407.5 452.85C407.8 452.56 408.1 452.26 408.4 451.96C409.97 452.59 411.54 453.21 413.11 453.84C412.46 454.06 411.81 454.28 411.17 454.5C413.14 454.5 415.12 454.5 417.09 454.5C416.35 454.28 415.61 454.06 414.87 453.83C417.11 452.88 419.36 451.92 421.61 450.96C421.91 451.24 422.2 451.51 422.5 451.79C423.28 450.5 424.07 449.21 424.85 447.92C425.24 447.34 425.62 446.77 426.01 446.19C426.51 446.02 427 445.85 427.5 445.68C428.33 443.62 429.15 441.56 429.98 439.5C429.7 439.25 429.41 439.01 429.13 438.76C429.36 438.13 429.59 437.5 429.82 436.87C430.05 437.39 430.27 437.9 430.5 438.42C430.64 434.78 430.79 431.14 430.93 427.5C430.59 427.28 430.26 427.05 429.92 426.83C429.64 426.72 429.36 426.61 429.08 426.5C427.72 424.04 426.37 421.58 425.01 419.12C425.35 418.91 425.68 418.71 426.02 418.5C424.85 417.91 423.67 417.32 422.5 416.74C422.36 417.09 422.23 417.43 422.09 417.78C419.09 417.14 416.93 417.84 414.11 418.92ZM531.95 449.83C530.25 449.83 528.55 449.82 526.86 449.81C527.07 449.53 527.29 449.26 527.5 448.98C528.98 449.27 530.47 449.55 531.95 449.83ZM709.93 470.09C710.94 470.23 711.95 470.36 712.96 470.5C715.24 481.5 714.54 493.31 715.24 504.5C716.35 522.16 718.33 539.84 719.07 557.5C719.45 566.34 719.92 575.04 720.53 583.87C720.75 587.21 720.02 591.48 721.83 594.01C720.92 596.33 720 598.65 719.09 600.97C718.89 600.58 718.7 600.18 718.5 599.79C717.61 601.19 716.72 602.59 715.84 603.99C709.56 608.64 703.28 613.29 697 617.94C696.83 617.6 696.67 617.25 696.5 616.91C695.3 617.77 694.11 618.64 692.91 619.5C693.25 619.69 693.59 619.88 693.94 620.06C682.42 628.06 670.9 636.05 659.38 644.04C659.09 643.73 658.79 643.43 658.5 643.13C656.38 644.58 654.26 646.04 652.14 647.5C651.98 648 651.83 648.49 651.68 648.99C640.25 656.68 628.83 664.37 617.41 672.05C617.11 671.78 616.8 671.5 616.5 671.23C615.58 672.15 614.65 673.07 613.73 674C613.65 674.28 613.58 674.57 613.5 674.86C612.4 675.19 611.31 675.53 610.21 675.87C606.59 666.64 607.62 653.59 606.83 643.5C605.25 623.2 604.73 602.76 602.86 582.5C602.22 575.54 602.37 568.51 601.66 561.55C601.11 556.19 600.04 549.94 600.39 544.6C600.51 542.69 601.79 540.56 602.32 539.01C608.24 535.08 614.16 531.14 620.08 527.2C620.22 527.54 620.36 527.88 620.5 528.22C622.51 527.18 623.29 526.73 624.17 524.98C624.28 524.66 624.39 524.33 624.5 524.01C628.31 521.67 632.11 519.33 635.92 516.99C636.11 517.33 636.31 517.68 636.5 518.02C637.89 517.18 639.28 516.34 640.67 515.5C640.85 515 641.03 514.51 641.21 514.01C664.12 499.37 687.02 484.73 709.93 470.09ZM470.28 480C470.56 480.17 470.83 480.33 471.11 480.5C470.8 482.01 470.48 483.52 470.17 485.03C470.21 483.35 470.24 481.68 470.28 480ZM715.16 483.95C715.38 485.62 715.61 487.29 715.83 488.96C715.61 487.29 715.38 485.62 715.16 483.95ZM470.17 486.05C470.52 487.54 470.87 489.02 471.22 490.5C470.92 490.67 470.61 490.83 470.31 491C470.26 489.35 470.22 487.7 470.17 486.05ZM689.92 497.09C688.61 497.69 687.31 498.29 686.01 498.89C685.84 498.58 685.67 498.27 685.5 497.95C683.74 499.47 681.97 500.98 680.21 502.5C680.49 502.81 680.78 503.13 681.07 503.44C679.41 506.6 677.75 509.76 676.08 512.92C675.89 512.31 675.69 511.69 675.5 511.08C674.44 515.35 674.04 518.76 674.5 523.17C674.6 520.94 674.71 518.72 674.81 516.5C675.14 516.29 675.47 516.07 675.8 515.86C675.81 518.23 675.82 520.6 675.83 522.98C675.49 523.15 675.14 523.33 674.79 523.5C675.54 526.83 676.73 529.14 679.5 531.14C679.64 530.82 679.79 530.49 679.93 530.17C684.5 531.81 687.81 531.08 692.1 529.24C692.23 529.58 692.37 529.93 692.5 530.27C693.94 529.01 695.38 527.76 696.82 526.5C696.53 526.2 696.23 525.89 695.94 525.59C696.28 525.09 696.61 524.6 696.95 524.11C697.13 524.51 697.32 524.9 697.5 525.29C698.3 523.69 699.11 522.1 699.91 520.5C699.65 520.25 699.38 520.01 699.12 519.76C699.37 519.17 699.62 518.58 699.87 517.98C700.08 518.47 700.29 518.96 700.5 519.45C701.66 514.61 702.06 510.7 701.5 505.7C701.29 506.78 701.07 507.87 700.86 508.95C700.63 507.98 700.4 507.01 700.17 506.04C700.57 505.86 700.97 505.68 701.37 505.5C700.37 501.53 698.99 499.01 695.5 496.82C695.33 497.16 695.17 497.5 695 497.83C694.7 497.58 694.4 497.33 694.09 497.07C693.9 496.73 693.7 496.38 693.5 496.04C691.67 496.19 689.84 496.35 688.01 496.5C688.65 496.7 689.28 496.89 689.92 497.09ZM716.17 499.86C716.39 501.55 716.61 503.25 716.83 504.95C716.61 503.25 716.39 501.55 716.17 499.86ZM717.13 516.13C717.36 517.73 717.6 519.34 717.83 520.94C717.6 519.34 717.36 517.73 717.13 516.13ZM718.13 531.03C718.37 532.65 718.6 534.28 718.83 535.91C718.6 534.28 718.37 532.65 718.13 531.03ZM721.09 575.15C721.33 576.82 721.57 578.49 721.8 580.16C721.48 579.94 721.16 579.72 720.84 579.5C720.93 578.05 721.01 576.6 721.09 575.15ZM601.18 584.92C601.41 586.57 601.64 588.21 601.88 589.86C601.64 588.21 601.41 586.57 601.18 584.92ZM634.87 603.05C634.38 603.39 633.89 603.72 633.4 604.05C633.1 603.77 632.8 603.48 632.5 603.19C631.12 604.63 629.73 606.06 628.35 607.5C628.6 607.83 628.85 608.16 629.1 608.49C628.76 608.98 628.43 609.47 628.09 609.97C627.89 609.57 627.7 609.18 627.5 608.78C626.69 610.36 625.88 611.93 625.08 613.5C625.37 613.75 625.67 613.99 625.97 614.24C625.34 616.11 624.71 617.98 624.08 619.84C623.89 619.08 623.69 618.32 623.5 617.55C622.46 624.74 622.49 630.7 627.16 636.5C627.58 636.32 627.99 636.13 628.41 635.95C629.63 636.58 630.85 637.21 632.08 637.84C631.59 638.06 631.1 638.28 630.61 638.5C633.76 638.94 636.18 639.43 638.05 636.96C638.34 636.67 638.63 636.38 638.92 636.09C639.11 636.37 639.31 636.66 639.5 636.94C641.74 634.79 643.99 632.65 646.23 630.5C645.87 630.35 645.51 630.21 645.15 630.06C645.44 629.8 645.72 629.53 646 629.26C650.8 626.54 650.94 617.75 650.9 612.5C650.55 612.7 650.19 612.89 649.84 613.09C649.22 611.15 648.6 609.21 647.97 607.27C648.29 607.02 648.61 606.76 648.93 606.5C647.39 603.6 645.55 601.95 642.5 600.74C642.33 601.1 642.17 601.47 642 601.83C641.02 601.83 640.04 601.83 639.06 601.84C640.09 601.39 641.12 600.95 642.15 600.5C638.77 600.37 636.62 600.89 633.61 602.5C634.03 602.68 634.45 602.87 634.87 603.05ZM597.19 655.79C597.41 657.49 597.62 659.18 597.84 660.88C597.62 659.18 597.41 657.49 597.19 655.79ZM432.72 656.97C433.75 657.14 434.79 657.32 435.82 657.5C438.81 687.88 437.2 718.98 437.11 749.5C437.09 758.17 437 766.83 436.88 775.5C436.83 778.9 435.44 783.13 436.84 786.03C436.55 786.86 436.26 787.68 435.98 788.5C435.65 788.6 435.32 788.71 434.99 788.81C433.65 789.71 432.3 790.6 430.96 791.5C431.29 791.69 431.62 791.88 431.95 792.07C420 799.35 408.04 806.62 396.09 813.9C395.89 813.61 395.7 813.32 395.5 813.03C393.84 813.86 392.18 814.68 390.53 815.5C390.99 815.69 391.46 815.88 391.93 816.07C390.3 817.01 388.67 817.96 387.05 818.9C386.87 818.61 386.68 818.32 386.5 818.04C384.94 818.86 383.37 819.68 381.81 820.5C382.16 820.68 382.51 820.86 382.87 821.04C379.92 822.66 376.98 824.27 374.04 825.88C373.86 825.6 373.68 825.32 373.5 825.04C371.87 825.86 370.23 826.68 368.6 827.5C369.02 827.68 369.44 827.86 369.86 828.04C363.61 831.32 357.35 834.6 351.1 837.88C350.9 837.61 350.7 837.35 350.5 837.08C347.5 838.55 344.5 840.03 341.5 841.5C341.95 841.68 342.39 841.86 342.83 842.05C342.28 842.37 341.73 842.7 341.17 843.03C340.95 842.71 340.72 842.4 340.5 842.09C338.99 843.05 337.47 844.01 335.96 844.97C334.63 845.66 333.29 846.35 331.96 847.04C331.81 847.37 331.65 847.7 331.5 848.04C330.7 848.31 329.91 848.58 329.11 848.85C328.91 848.53 328.7 848.21 328.5 847.89C326.5 848.43 324.51 848.96 322.51 849.5C323.31 849.69 324.11 849.89 324.91 850.08C322.58 851.36 320.65 851.35 319.14 849.07C320.47 846.25 319.68 841.87 319.68 838.5C319.68 830.84 319.94 823.17 319.99 815.5C320.09 799.91 320.81 784.04 321.89 768.5C322.38 761.48 321.95 754.46 322.57 747.44C323.23 740.11 322.87 732.84 323.12 725.5C323.24 722 324.18 717.39 322.93 714.57C323.25 714.05 323.56 713.53 323.87 713.01C324.08 713.38 324.29 713.76 324.5 714.13C325.24 713.59 325.97 713.04 326.71 712.5C326.88 711.99 327.06 711.49 327.24 710.98C327.5 710.71 327.76 710.43 328.03 710.15C328.52 710.38 329.01 710.6 329.5 710.83C334.5 708.2 339.5 705.58 344.5 702.96C344.37 702.62 344.25 702.28 344.12 701.94C346.68 700.62 349.23 699.3 351.79 697.97C352.02 698.31 352.26 698.64 352.5 698.97C355.4 697.65 358.8 696.43 360.26 693.99C360.34 693.69 360.42 693.38 360.5 693.08C364.62 691.09 368.74 689.1 372.87 687.11C373.52 687.4 373.22 687.86 374.33 687.76C376.68 687.54 386 681.74 388.84 680.36C389.77 679.91 393.5 678.69 393.75 677.6C393.83 677.24 393.2 677.16 393.14 676.96C393.7 676.63 394.26 676.3 394.82 675.98C395.04 676.29 395.27 676.6 395.5 676.91C397.1 676.11 398.7 675.3 400.3 674.5C399.89 674.31 399.48 674.12 399.06 673.93C410.28 668.28 421.5 662.62 432.72 656.97ZM409.7 683C409.45 683.29 409.19 683.58 408.93 683.87C406.82 682.84 404.63 685.74 403.09 687.63C398.69 693.07 397 698.58 397.11 705.5C397.37 705.82 397.13 706.58 397.54 706.66C397.81 706.71 398.09 705.09 398.14 704.95C400.8 710.03 400.83 710.87 405.95 713.9C405.37 714.1 404.79 714.3 404.21 714.5C406.49 714.5 408.77 714.5 411.05 714.5C410.39 714.3 409.73 714.1 409.07 713.89C409.72 713.65 410.36 713.41 411 713.17C411.17 713.49 411.33 713.81 411.5 714.12C413.89 713.38 415.09 712.92 416.29 711.01C416.56 710.73 416.83 710.46 417.1 710.18C417.24 710.5 417.37 710.82 417.5 711.15C419.07 709.6 420.63 708.05 422.2 706.5C421.86 706.36 421.52 706.22 421.17 706.08C422.46 703.22 423.74 700.36 425.02 697.5C425.31 697.36 425.61 697.22 425.9 697.09C426.23 696.89 426.55 696.7 426.87 696.5C427.39 692.23 427.48 688.3 425.5 684.39C425 684.21 424.51 684.02 424.01 683.83C423.38 683.22 422.76 682.61 422.14 682C419.9 678.33 413.89 679.79 410.27 681.5C410.08 682 409.89 682.5 409.7 683ZM242.2 689.93C242.53 690.12 242.86 690.31 243.19 690.5C243.18 692.17 243.16 693.83 243.14 695.5C242.83 695.69 242.51 695.88 242.2 696.08C242.2 694.03 242.2 691.98 242.2 689.93ZM438.16 700.16C438.16 711.79 438.16 723.42 438.17 735.05C438.16 723.42 438.16 711.79 438.16 700.16ZM321.78 726.64C321.58 729.14 321.38 731.63 321.18 734.13C321.38 731.63 321.58 729.14 321.78 726.64ZM379.66 729.99C379.41 730.26 379.16 730.53 378.91 730.8C378.77 730.39 378.64 729.98 378.5 729.57C376.04 731.44 373.78 733.19 373.16 736.09C372.74 737.23 372.32 738.36 371.91 739.5C371.61 739.58 371.31 739.66 371 739.74C367.39 742.55 366.98 749.99 368.03 754.5C368.39 754.7 368.74 754.9 369.1 755.1C369.39 755.23 369.68 755.37 369.97 755.5C370.98 758.73 372.57 760.46 375.5 762.11C375.61 762.4 375.71 762.68 375.82 762.97C377.94 765.13 379.91 764.81 383.13 764.5C381.59 764.42 380.04 764.34 378.5 764.26C378.3 763.92 378.1 763.57 377.89 763.22C387.76 763.31 387.43 760.01 394 755.18C394.5 755.03 395 754.87 395.5 754.72C396.46 752.31 397.42 749.91 398.38 747.5C397.99 747.36 397.59 747.21 397.19 747.07C397.42 746.74 397.66 746.42 397.89 746.1C398.22 745.9 398.56 745.7 398.9 745.5C398.77 742.62 398.63 739.75 398.5 736.87C398.3 737.58 398.1 738.28 397.89 738.99C397.65 738.37 397.41 737.75 397.16 737.13C397.51 736.92 397.86 736.71 398.21 736.5C397.64 735.17 397.07 733.85 396.5 732.52C396.32 732.97 396.13 733.42 395.95 733.87C395.62 733.38 395.28 732.89 394.95 732.4C395.27 732.1 395.58 731.8 395.89 731.5C394.76 730.67 393.63 729.85 392.5 729.02C392.28 729.32 392.06 729.63 391.83 729.93C391.59 729.63 391.34 729.33 391.09 729.02C388.65 725.76 383.96 727.21 380.34 728.5C380.12 729 379.89 729.5 379.66 729.99ZM389.1 728.8C387.35 728.79 385.59 728.77 383.84 728.75C384.06 728.39 384.28 728.04 384.5 727.68C385.83 727.73 387.17 727.78 388.5 727.83C388.7 728.16 388.9 728.48 389.1 728.8ZM320.85 754.12C320.63 757.03 320.4 759.94 320.17 762.85C320.4 759.94 320.63 757.03 320.85 754.12ZM199.33 756C199.63 756.17 199.92 756.33 200.22 756.5C200.14 758.17 200.07 759.83 199.99 761.5C199.73 761.67 199.46 761.83 199.2 762C199.25 760 199.29 758 199.33 756ZM311.83 757.1C311.61 760.1 311.39 763.1 311.17 766.1C311.39 763.1 311.61 760.1 311.83 757.1ZM319.86 783.09C319.97 785.23 320.08 787.36 320.19 789.5C319.88 789.67 319.57 789.83 319.26 790C319.46 787.7 319.66 785.4 319.86 783.09ZM360.1 784.76C355.2 784.56 352.1 785.61 347.9 787.8C347.77 787.4 347.63 787 347.5 786.6C345.31 788.35 343.74 789.48 343.29 792.14C342.86 792.71 342.43 793.28 342 793.86C336.6 796.91 334.82 808.59 338.04 813.24C338.33 813.32 338.62 813.41 338.91 813.5C339.19 814.37 339.47 815.23 339.75 816.1C339.43 816.23 339.11 816.37 338.78 816.5C340.04 818.23 340.17 818.38 342.11 818.77C343.38 819.14 344.64 819.51 345.9 819.88C345.29 820.09 344.67 820.29 344.05 820.5C346.18 820.5 348.3 820.5 350.43 820.5C349.92 820.28 349.41 820.06 348.9 819.84C351.47 818.54 354.04 817.25 356.61 815.96C356.91 816.2 357.2 816.45 357.5 816.69C358.58 815.63 359.66 814.56 360.75 813.5C360.48 813.21 360.22 812.91 359.96 812.62C361.94 809.06 363.92 805.51 365.89 801.96C366.22 801.8 366.55 801.65 366.89 801.5C367.97 797.28 367.8 793.86 366.5 789.71C366.27 790.17 366.05 790.62 365.82 791.07C365.27 790.03 364.72 788.98 364.16 787.93C364.5 787.79 364.83 787.64 365.16 787.5C364.27 786.58 363.39 785.66 362.5 784.73C362.37 785.07 362.24 785.4 362.1 785.74C361.85 785.49 361.6 785.24 361.35 785C361.16 784.5 360.97 784 360.78 783.5C358.46 783.5 356.14 783.5 353.82 783.5C355.72 783.56 357.61 783.62 359.5 783.68C359.7 784.04 359.9 784.4 360.1 784.76ZM310.82 788.94C310.6 791.6 310.37 794.26 310.15 796.92C310.37 794.26 310.6 791.6 310.82 788.94ZM309.83 819.02C309.61 822.05 309.39 825.09 309.17 828.12C309.39 825.09 309.61 822.05 309.83 819.02ZM318.83 818.78C318.98 820.35 319.12 821.93 319.26 823.5C318.94 823.67 318.62 823.83 318.3 824C318.48 822.26 318.65 820.52 318.83 818.78Z" fill="#d5d0c7" fill-rule="evenodd" stroke="#d5d0c7" stroke-width="0.25" stroke-linejoin="round"/>
</svg>